<svg id="Layer_1" data-name="Layer 1" xmlns="http://www.w3.org/2000/svg" viewBox="0 0 644.31 867"><defs><style>.cls-1{fill:#ff8d72;}</style></defs><title>cympl</title><path class="cls-1" d="M508.9,86a41.61,41.61,0,1,1-41.61,41.61A41.66,41.66,0,0,1,508.9,86m0-20a61.61,61.61,0,1,0,61.61,61.61A61.61,61.61,0,0,0,508.9,66Z" transform="translate(-186 -66)"/><path class="cls-1" d="M507.41,256.34a70.21,70.21,0,1,1-70.21,70.21,70.28,70.28,0,0,1,70.21-70.21m0-30A100.21,100.21,0,1,0,607.62,326.55,100.21,100.21,0,0,0,507.41,226.34Z" transform="translate(-186 -66)"/><path class="cls-1" d="M286.08,406l65.11,75.75A180.69,180.69,0,0,0,325,576c0,100.66,81.89,182.56,182.56,182.56S690.16,676.62,690.16,576a182,182,0,0,0-34.49-106.81l75.72-61.95A302.36,302.36,0,1,1,286.08,406m444.17-28.48-5.34,9.18-93.47,76.46-4.32,2.65a162.56,162.56,0,1,1-248.07,10.68l-10.45-5.17-72.74-84.62-11.47-7.56A321.19,321.19,0,0,0,186,610.84C186,788.77,330.23,933,508.16,933S830.31,788.77,830.31,610.84A321.22,321.22,0,0,0,730.25,377.49Z" transform="translate(-186 -66)"/><path class="cls-1" d="M507.41,485a92.48,92.48,0,1,1-92.48,92.48A92.58,92.58,0,0,1,507.41,485m0-30A122.48,122.48,0,1,0,629.89,577.44,122.48,122.48,0,0,0,507.41,455Z" transform="translate(-186 -66)"/></svg>