<svg id="Layer_1" data-name="Layer 1" xmlns="http://www.w3.org/2000/svg" viewBox="0 0 700 700"><defs><style>.cls-1{fill:#00f2c3;}</style></defs><title>scout</title><path class="cls-1" d="M508.25,204.25A318.81,318.81,0,1,1,383.7,229.38a318.12,318.12,0,0,1,124.55-25.13m0-30c-193.3,0-350,156.7-350,350s156.7,350,350,350,350-156.7,350-350-156.7-350-350-350Z" transform="translate(-158.25 -174.25)"/><polygon class="cls-1" points="365 29.75 335 29.75 335 689.75 365 689.75 365 29.75 365 29.75"/><polygon class="cls-1" points="19.75 335 19.75 365 679.75 365 679.75 335 19.75 335 19.75 335"/></svg>