<svg id="Layer_1" data-name="Layer 1" xmlns="http://www.w3.org/2000/svg" viewBox="0 0 699.47 907.17"><defs><style>.cls-1{fill:#e14eca;}.cls-2,.cls-3{fill:none;stroke-miterlimit:10;}.cls-2{stroke:#000;stroke-width:15px;}.cls-3{stroke:#e14eca;stroke-width:30px;}</style></defs><title>SecureMeetingLogoOutline</title><path class="cls-1" d="M676.4,380a92.33,92.33,0,0,1,92.23,92.22V827.78A92.33,92.33,0,0,1,676.4,920H320.85a92.32,92.32,0,0,1-92.22-92.22V472.22A92.32,92.32,0,0,1,320.85,380H676.4m0-30H320.85A122.22,122.22,0,0,0,198.63,472.22V827.78A122.22,122.22,0,0,0,320.85,950H676.4A122.23,122.23,0,0,0,798.63,827.78V472.22A122.23,122.23,0,0,0,676.4,350Z" transform="translate(-147.89 -42.83)"/><path class="cls-2" d="M534.5,177.83" transform="translate(-147.89 -42.83)"/><path class="cls-1" d="M503,72.83a19.72,19.72,0,0,1,9.94,2.68l294.45,170a20,20,0,0,1-10.05,37.33,19.62,19.62,0,0,1-9.95-2.69L512.63,121.54l-15-8.66-15,8.66L207.9,280.15a19.62,19.62,0,0,1-10,2.69,20,20,0,0,1-10-37.33l294.45-170a19.71,19.71,0,0,1,9.93-2.68,19.23,19.23,0,0,1,2.15.12l3.2.34,3.19-.34a19.19,19.19,0,0,1,2.14-.12m0-30a50.14,50.14,0,0,0-5.34.29,49.66,49.66,0,0,0-30.27,6.41l-294.45,170a50,50,0,0,0-18.3,68.3h0a50,50,0,0,0,68.3,18.3L497.63,147.52,772.35,306.13a50,50,0,0,0,68.3-18.3h0a50,50,0,0,0-18.3-68.3L527.9,49.53A49.77,49.77,0,0,0,503,42.83Z" transform="translate(-147.89 -42.83)"/><path class="cls-3" d="M606.75,650a107,107,0,1,0-107.4,107V805.5c25.62-26.55,45-48.4,59.54-66.33A106.86,106.86,0,0,0,606.75,650Z" transform="translate(-147.89 -42.83)"/></svg>