<?xml version="1.0" encoding="utf-8"?>
<!-- Generator: Adobe Illustrator 23.0.1, SVG Export Plug-In . SVG Version: 6.00 Build 0)  -->
<svg version="1.1" id="Layer_1" xmlns="http://www.w3.org/2000/svg" xmlns:xlink="http://www.w3.org/1999/xlink" x="0px" y="0px"
	 viewBox="0 0 175 120" enable-background="new 0 0 175 120" xml:space="preserve">
<path fill="#7E8287" d="M94.23,13.22c0.79,0.39,1.46,0.63,2.02,1.01c0.86,0.59,1.26,1.43,1.01,2.51c-0.04,0.18-0.22,0.4-0.11,0.56
	c0.49,0.9,0.36,0.84,0.86,1.54c-0.05,0.05,0.22,0.38,0.17,0.42c0.97,1.51,0.11,0.81-0.38,0.49c-0.48-0.31-0.75-0.47-2-0.96
	c-0.51-0.1-1-0.19-1.36-0.36c-2.15-1.05-4.18-0.51-6.17,0.4c-1.66,0.76-3.01,1.93-3.86,3.58c-0.65,1.25-0.79,2.57-0.49,3.94
	c0.71,3.31,2.87,5.44,5.74,6.96c3.05,1.62,6.36,2.52,9.71,3.31c2.67,0.63,5.33,1.31,7.99,1.97c2.49,0.62,4.92,1.43,7.05,2.9
	c3.92,2.69,6.89,6.19,8.86,10.54c1.18,2.61,1.88,5.32,2.11,8.28c-0.42-0.68-0.73-1.29-1.15-1.84c-1.57-2.06-3.75-3.15-6.19-3.8
	c-2.94-0.79-5.94-0.66-8.94-0.55c-2.41,0.09-4.82,0.1-7.23-0.01c-2.76-0.12-5.43-0.79-8.03-1.71c-4.58-1.62-8.57-4.12-11.71-7.89
	c-2.06-2.47-3.5-5.26-4.36-8.34c-1.33-4.8-1.39-9.57,0.77-14.18c1.59-3.38,3.94-6.07,7.41-7.64c1.81-0.82,3.73-1.16,5.71-1.19
	c0.38,0,0.76,0,1.14,0C92.74,13.23,94.3,13.17,94.23,13.22"/>
<path fill="#7E8287" d="M98.19,8.37"/>
<path fill="#3C4457" d="M119.74,73.81c-4.26,2.15-8.81,3.42-13.54,3.97c-3.44,0.4-6.9,0.37-10.36-0.06
	c-6.86-0.86-13.24-2.98-19.01-6.86c-2.12-1.43-3.91-3.21-5.56-5.13c-1.9-2.23-3.78-4.48-5.54-6.81c-2.63-3.49-4.89-7.23-6.41-11.35
	c-1.03-2.8-1.71-5.71-1.2-8.74c0.38-2.27,1.27-4.27,3.12-5.75c1.65-1.31,4.17-1.38,6.28-0.13c2.15,1.28,3.59,3.18,4.68,5.39
	c1.29,2.6,1.76,5.44,2.59,8.18c0.97,3.22,2.02,6.4,3.38,9.48c1.84,4.17,4.23,7.95,7.55,11.1c3.76,3.56,8.12,6.06,13.13,7.42
	c2.39,0.65,4.82,1.06,7.29,1.13c4.26,0.12,8.47-0.28,12.54-1.62C119.04,73.93,119.39,73.88,119.74,73.81z"/>
<path fill="#9C9794" d="M90.39,78.32c-0.95,0.03-1.9,0.08-2.86,0.07c-2.56-0.02-5.1-0.35-7.6-0.91c-6.54-1.48-12.66-3.93-17.97-8.12
	c-1.97-1.55-3.62-3.41-4.8-5.64c-0.65-1.22-1.07-2.52-1-3.95c0.1-1.8,2.13-2.94,4.01-2.23c1.47,0.55,2.61,1.57,3.57,2.75
	c1.39,1.7,2.63,3.52,4.03,5.21c2.94,3.53,6.43,6.41,10.45,8.66c3.26,1.83,6.73,3.09,10.41,3.76c0.57,0.11,1.15,0.15,1.73,0.22
	C90.39,78.2,90.39,78.26,90.39,78.32z"/>
<path fill="#3C4457" d="M121.42,59.13c0.14,0.38,0.3,0.76,0.41,1.15c0.87,2.97,0.69,5.82-1.06,8.46c-1.72,2.6-5.42,3.59-7.96,2.15
	c-2.22-1.26-2.48-3.76-0.57-5.48c1.3-1.16,2.89-1.54,4.56-1.82c0.92-0.15,1.88-0.34,2.69-0.77c1.41-0.74,1.91-2.06,1.76-3.63
	C121.31,59.18,121.37,59.16,121.42,59.13z"/>
<path fill="#B6B8B7" d="M110.89,73.85c-0.95-0.1-1.9-0.18-2.84-0.31c-2.54-0.37-5-1.04-7.4-1.94c-6.28-2.36-12-5.61-16.7-10.49
	c-1.74-1.81-3.12-3.87-3.98-6.24c-0.47-1.3-0.72-2.65-0.45-4.05c0.34-1.77,2.51-2.62,4.27-1.67c1.38,0.75,2.37,1.91,3.17,3.21
	c1.15,1.87,2.13,3.85,3.29,5.71c2.43,3.9,5.5,7.23,9.17,10c2.99,2.25,6.25,3.97,9.8,5.14c0.55,0.18,1.12,0.3,1.68,0.45
	C110.9,73.72,110.9,73.78,110.89,73.85z"/>
<path fill="#3C4457" d="M112.45,61.66c-0.19,0.31-0.35,0.64-0.56,0.93c-1.56,2.27-3.63,3.73-6.47,3.93c-2.79,0.2-5.61-1.9-6.07-4.52
	c-0.4-2.29,1.18-3.87,3.47-3.45c1.55,0.29,2.73,1.23,3.88,2.27c0.63,0.58,1.32,1.16,2.08,1.51c1.32,0.6,2.53,0.23,3.53-0.75
	C112.35,61.61,112.4,61.63,112.45,61.66z"/>
<path fill="#9C9794" d="M94.28,13.37c0,0-11.79-11.05-15.09-5.68C75.89,13.06,83.86,5.99,94.28,13.37z"/>
<path fill="#9C9794" d="M94.28,13.36c0,0-16.05-6.07-16.43,0C77.47,19.43,81.25,10.18,94.28,13.36z"/>
<path fill="#9C9794" d="M94.29,13.37c0,0-8.05-15.16-12.34-10.84C77.66,6.84,86.6,2.38,94.29,13.37z"/>
<g>
	<g>
		<path fill="#3C4457" d="M26.8,91.18c0.18,0,0.32,0.14,0.32,0.3v0.34c0,0.16-0.14,0.3-0.32,0.3h-2.89v11.91
			c0,0.18-0.14,0.32-0.3,0.32h-0.34c-0.16,0-0.3-0.14-0.3-0.32V92.11h-2.89c-0.18,0-0.32-0.14-0.32-0.3v-0.34
			c0-0.16,0.14-0.3,0.32-0.3H26.8z"/>
	</g>
	<g>
		<path fill="#3C4457" d="M36.16,103.84c0.2,0.2,0.02,0.49-0.24,0.49h-0.46c-0.12,0-0.2-0.06-0.26-0.12l-4.85-5.32
			c-0.16-0.2-0.02-0.53,0.26-0.53c2.34,0,4.22-0.99,4.22-3.29c0-2.53-1.96-2.97-3.66-2.97h-0.89v11.91c0,0.18-0.14,0.32-0.32,0.32
			h-0.32c-0.18,0-0.32-0.14-0.32-0.32V91.47c0-0.16,0.14-0.3,0.32-0.3h1.52c2.61,0,4.59,1.07,4.59,3.9c0,2.2-1.33,3.7-3.84,4.12
			l4.22,4.63L36.16,103.84z"/>
	</g>
	<g>
		<path fill="#3C4457" d="M47.17,91.18c0.18,0,0.32,0.14,0.32,0.3v8.65c0,2.32-1.86,4.39-4.37,4.39c-2.59,0-4.39-2.16-4.39-4.39
			v-8.65c0-0.16,0.14-0.3,0.32-0.3h0.32c0.18,0,0.32,0.14,0.32,0.3v8.65c0,1.88,1.56,3.44,3.44,3.44c2.18,0,3.42-1.78,3.42-3.44
			v-8.65c0-0.16,0.16-0.3,0.32-0.3H47.17z"/>
	</g>
	<g>
		<path fill="#3C4457" d="M52.05,96.74h4.65c0.18,0,0.32,0.14,0.32,0.32v0.32c0,0.16-0.14,0.32-0.32,0.32h-4.65v5.7h4.65
			c0.18,0,0.32,0.14,0.32,0.32v0.32c0,0.18-0.14,0.32-0.32,0.32h-5.28c-0.18,0-0.32-0.14-0.32-0.32V91.47c0-0.16,0.14-0.3,0.32-0.3
			h5.28c0.18,0,0.32,0.14,0.32,0.3v0.34c0,0.16-0.14,0.3-0.32,0.3h-4.65V96.74z"/>
	</g>
	<g>
		<path fill="#3C4457" d="M74.81,102.87c0.1,0.14,0.12,0.28-0.1,0.44c-1.09,0.75-2.42,1.21-3.84,1.21c-3.72,0-6.75-3.03-6.75-6.77
			c0-3.72,3.03-6.75,6.75-6.75c1.43,0,2.73,0.45,3.82,1.19l0.06,0.04c0.2,0.16,0.12,0.34,0.06,0.42l-0.22,0.28
			c-0.16,0.2-0.36,0.08-0.42,0.04c-0.93-0.63-1.96-1.03-3.31-1.03c-2.69,0-5.82,2.18-5.82,5.82c0,3.7,3.17,5.84,5.82,5.84
			c1.33,0,2.51-0.47,3.29-1.01c0.18-0.1,0.34-0.12,0.46,0.04L74.81,102.87z"/>
	</g>
	<g>
		<path fill="#3C4457" d="M83.66,103.39c0.18,0,0.32,0.14,0.32,0.32v0.32c0,0.18-0.14,0.32-0.32,0.32h-5.6
			c-0.18,0-0.32-0.14-0.32-0.32V91.47c0-0.16,0.14-0.3,0.32-0.3h0.32c0.18,0,0.32,0.14,0.32,0.3v11.92H83.66z"/>
	</g>
	<g>
		<path fill="#3C4457" d="M86.82,91.18c0.16,0,0.3,0.14,0.3,0.3v12.55c0,0.18-0.14,0.32-0.3,0.32h-0.34c-0.16,0-0.3-0.14-0.3-0.32
			V91.47c0-0.16,0.14-0.3,0.3-0.3H86.82z"/>
	</g>
	<g>
		<path fill="#3C4457" d="M91.83,96.74h4.65c0.18,0,0.32,0.14,0.32,0.32v0.32c0,0.16-0.14,0.32-0.32,0.32h-4.65v5.7h4.65
			c0.18,0,0.32,0.14,0.32,0.32v0.32c0,0.18-0.14,0.32-0.32,0.32h-5.29c-0.18,0-0.32-0.14-0.32-0.32V91.47c0-0.16,0.14-0.3,0.32-0.3
			h5.29c0.18,0,0.32,0.14,0.32,0.3v0.34c0,0.16-0.14,0.3-0.32,0.3h-4.65V96.74z"/>
	</g>
	<g>
		<path fill="#3C4457" d="M108.77,91.18c0.18,0,0.32,0.14,0.32,0.3v12.91c0,0.12-0.06,0.22-0.18,0.28c-0.14,0.06-0.3,0.02-0.38-0.1
			l-7.56-11.36v10.83c0,0.18-0.14,0.32-0.3,0.32h-0.34c-0.16,0-0.3-0.14-0.3-0.32V91.14c0-0.16,0.14-0.3,0.3-0.3
			c0.1,0,0.2,0.04,0.26,0.12l7.54,11.42V91.47c0-0.16,0.14-0.3,0.32-0.3H108.77z"/>
	</g>
	<g>
		<path fill="#3C4457" d="M118.33,91.18c0.18,0,0.32,0.14,0.32,0.3v0.34c0,0.16-0.14,0.3-0.32,0.3h-2.89v11.91
			c0,0.18-0.14,0.32-0.3,0.32h-0.34c-0.16,0-0.3-0.14-0.3-0.32V92.11h-2.89c-0.18,0-0.32-0.14-0.32-0.3v-0.34
			c0-0.16,0.14-0.3,0.32-0.3H118.33z"/>
	</g>
	<g>
		<path fill="#3C4457" d="M126.32,91.18c3.7,0,5.23,1.19,5.23,3.9c0,2.59-1.86,4.24-5.33,4.24h-0.16v4.71
			c0,0.18-0.14,0.32-0.32,0.32h-0.32c-0.18,0-0.32-0.14-0.32-0.32V91.47c0-0.16,0.14-0.3,0.32-0.3H126.32z M126.22,98.42
			c2.57,0,4.43-0.99,4.43-3.35c0-2.43-1.52-3.01-4.59-3.01v6.35H126.22z"/>
	</g>
	<g>
		<path fill="#3C4457" d="M141.09,103.84c0.2,0.2,0.02,0.49-0.24,0.49h-0.45c-0.12,0-0.2-0.06-0.26-0.12l-4.85-5.32
			c-0.16-0.2-0.02-0.53,0.26-0.53c2.34,0,4.22-0.99,4.22-3.29c0-2.53-1.96-2.97-3.66-2.97h-0.89v11.91c0,0.18-0.14,0.32-0.32,0.32
			h-0.32c-0.18,0-0.32-0.14-0.32-0.32V91.47c0-0.16,0.14-0.3,0.32-0.3h1.52c2.61,0,4.59,1.07,4.59,3.9c0,2.2-1.33,3.7-3.84,4.12
			l4.22,4.63L141.09,103.84z"/>
	</g>
	<g>
		<path fill="#3C4457" d="M156.23,97.75c0,3.74-3.03,6.77-6.75,6.77c-3.72,0-6.75-3.03-6.75-6.77c0-3.72,3.03-6.75,6.75-6.75
			C153.2,91,156.23,94.03,156.23,97.75z M143.66,97.75c0,2.67,2.22,5.84,5.82,5.84c2.67,0,5.82-2.22,5.82-5.84
			c0-2.69-2.18-5.82-5.82-5.82C145.79,91.93,143.66,95.13,143.66,97.75z"/>
	</g>
</g>
<polyline fill="none" stroke="#B7B8B7" stroke-width="2" stroke-miterlimit="10" points="137.71,77.63 174,77.63 174,117.28 
	2,117.28 2,77.02 50.63,77.02 "/>
</svg>
